<svg xmlns="http://www.w3.org/2000/svg" width="1200" height="630" viewBox="0 0 1200 630" role="img" aria-labelledby="title description">
  <title id="title">XG engineering portfolio social preview</title>
  <desc id="description">Editorial black and grey typography on white with technical reference rules.</desc>
  <rect width="1200" height="630" fill="#ffffff"/>
  <g fill="none" stroke="#d9d9d9" stroke-width="1">
    <path d="M72 72H1128M72 558H1128"/>
    <path d="M72 72V558M1128 72V558" stroke-dasharray="3 7"/>
    <path d="M72 134H1128"/>
    <path d="M72 72v14M192 72v8M312 72v8M432 72v8M552 72v8M672 72v8M792 72v8M912 72v8M1032 72v8M1128 72v14"/>
  </g>
  <g fill="#111111" font-family="Arial, Helvetica, sans-serif">
    <text x="72" y="119" font-size="54" font-weight="700" letter-spacing="-3">XG</text>
    <text x="1128" y="112" text-anchor="end" font-size="14" font-weight="700" letter-spacing="2.8">ENGINEERING PORTFOLIO / 2026</text>
    <text x="72" y="260" font-size="60" font-weight="600" letter-spacing="-2.4">
      <tspan x="72" dy="0">Engineering systems for spectrum,</tspan>
      <tspan x="72" dy="72">compliance, and product decisions.</tspan>
    </text>
  </g>
  <g fill="#5f5f5f" font-family="Arial, Helvetica, sans-serif">
    <text x="72" y="463" font-size="22" letter-spacing="0.15">Projects, technical systems, and selected technical work.</text>
    <text x="72" y="536" font-size="13" font-weight="700" letter-spacing="2.5">PUBLIC-SAFE TECHNICAL EVIDENCE</text>
    <text x="1128" y="536" text-anchor="end" font-size="13" font-weight="700" letter-spacing="2.5">XG / 1200 × 630</text>
  </g>
</svg>
